<mxfile host="app.diagrams.net" modified="2021-11-29T20:43:52.308Z" agent="5.0 (Windows)" etag="yp5U-GJNF9Adcts5toCu" version="15.8.7" type="github">
  <diagram id="_37h1flMU-dZSMcLrL18" name="Page-1">
    <mxGraphModel dx="782" dy="420" grid="1" gridSize="10" guides="1" tooltips="1" connect="1" arrows="1" fold="1" page="1" pageScale="1" pageWidth="850" pageHeight="1100" math="0" shadow="0">
      <root>
        <mxCell id="0" />
        <mxCell id="1" parent="0" />
        <mxCell id="AcAOfwUoswfajYFOXejZ-1" value="start" style="ellipse;whiteSpace=wrap;html=1;aspect=fixed;" vertex="1" parent="1">
          <mxGeometry x="385" y="130" width="80" height="80" as="geometry" />
        </mxCell>
      </root>
    </mxGraphModel>
  </diagram>
</mxfile>
